# xmcd
#
# Track frame offsets: 
#        150
#        20589
#        41983
#        56714
#        66552
#        81317
#        97918
#        117762
#        122214
#        137992
#        151566
#        170297
#
# Disc length: 2559 seconds
#
# Revision: 0
# Processed by: cddbd v1.5.2PL0 Copyright (c) Steve Scherf et al.
# Submitted via: ExactAudioCopyFreeDBPlugin 1.0
#
DISCID=a409fd0c
DTITLE=Ian Dury - Apples
DYEAR=1989
DGENRE=Rock
TTITLE0=Apples
TTITLE1=Love Is All
TTITLE2=Byline Browne
TTITLE3=Bit Of Kit
TTITLE4=Game On
TTITLE5=Looking For Harry
TTITLE6=England's Glory
TTITLE7=Bus Drivers' Prayer
TTITLE8=PC Honey
TTITLE9=The Right People
TTITLE10=All Those Who Say Okay
TTITLE11=Riding The Outskirts Of Fantasy
EXTD=
EXTT0=
EXTT1=
EXTT2=
EXTT3=
EXTT4=
EXTT5=
EXTT6=
EXTT7=
EXTT8=
EXTT9=
EXTT10=
EXTT11=
PLAYORDER=
